<svg id="visual" viewBox="0 0 1000 100" width="1000" height="100" xmlns="http://www.w3.org/2000/svg" xmlns:xlink="http://www.w3.org/1999/xlink" version="1.1"><path d="M0 22L18.5 34C37 46 74 70 111 66.5C148 63 185 32 222 30.3C259 28.7 296 56.3 333 69.7C370 83 407 82 444.2 68C481.3 54 518.7 27 555.8 27.8C593 28.7 630 57.3 667 57.7C704 58 741 30 778 21C815 12 852 22 889 37.2C926 52.3 963 72.7 981.5 82.8L1000 93L1000 0L981.5 0C963 0 926 0 889 0C852 0 815 0 778 0C741 0 704 0 667 0C630 0 593 0 555.8 0C518.7 0 481.3 0 444.2 0C407 0 370 0 333 0C296 0 259 0 222 0C185 0 148 0 111 0C74 0 37 0 18.5 0L0 0Z" fill="#4209C5" stroke-linecap="round" stroke-linejoin="miter"></path></svg>