<svg id="visual" viewBox="0 0 1200 600" width="1200" height="600" xmlns="http://www.w3.org/2000/svg" xmlns:xlink="http://www.w3.org/1999/xlink" version="1.1"><path d="M0 294L28.5 316.2C57 338.3 114 382.7 171.2 338C228.3 293.3 285.7 159.7 342.8 182C400 204.3 457 382.7 514.2 443C571.3 503.3 628.7 445.7 685.8 357C743 268.3 800 148.7 857.2 168.5C914.3 188.3 971.7 347.7 1028.8 387.5C1086 427.3 1143 347.7 1171.5 307.8L1200 268L1200 0L1171.5 0C1143 0 1086 0 1028.8 0C971.7 0 914.3 0 857.2 0C800 0 743 0 685.8 0C628.7 0 571.3 0 514.2 0C457 0 400 0 342.8 0C285.7 0 228.3 0 171.2 0C114 0 57 0 28.5 0L0 0Z" fill="#101010" stroke-linecap="round" stroke-linejoin="miter"></path></svg>