<svg id="visual" viewBox="0 0 1000 100" width="1000" height="100" xmlns="http://www.w3.org/2000/svg" xmlns:xlink="http://www.w3.org/1999/xlink" version="1.1"><path d="M0 38L41.7 31.8C83.3 25.7 166.7 13.3 250 17C333.3 20.7 416.7 40.3 500 52.3C583.3 64.3 666.7 68.7 750 63.7C833.3 58.7 916.7 44.3 958.3 37.2L1000 30L1000 101L958.3 101C916.7 101 833.3 101 750 101C666.7 101 583.3 101 500 101C416.7 101 333.3 101 250 101C166.7 101 83.3 101 41.7 101L0 101Z" fill="#4209C5" stroke-linecap="round" stroke-linejoin="miter"></path></svg>